<svg width="117" height="22" viewBox="0 0 117 22" fill="none" xmlns="http://www.w3.org/2000/svg">
<path d="M10.339 17L4.175 8.49L10.086 0.692999H15.1L8.361 9.157L8.338 7.708L15.353 17H10.339ZM0.449 17V0.692999H4.566V17H0.449ZM16.7492 17V5.753H20.7512V17H16.7492ZM20.7512 10.882L18.9572 9.364C19.4018 8.09133 19.9922 7.133 20.7282 6.489C21.4642 5.845 22.4225 5.523 23.6032 5.523C24.1398 5.523 24.5998 5.592 24.9832 5.73C25.3818 5.868 25.7192 6.08267 25.9952 6.374L23.6722 9.479C23.5495 9.341 23.3732 9.23367 23.1432 9.157C22.9285 9.065 22.6832 9.019 22.4072 9.019C21.8858 9.019 21.4795 9.18 21.1882 9.502C20.8968 9.80867 20.7512 10.2687 20.7512 10.882ZM30.1023 17.023L25.5943 5.753H29.8723L32.6323 15.022H30.9533L33.7363 5.753H38.0143L33.3913 17L30.1023 17.023ZM27.4343 21.761L30.7693 14.424L33.3913 17L31.4593 21.761H27.4343ZM45.6111 17.23C44.8905 17.23 44.2235 17.0997 43.6101 16.839C42.9968 16.5783 42.4908 16.2257 42.0921 15.781C41.6935 15.321 41.4481 14.792 41.3561 14.194V8.72C41.4481 8.122 41.6935 7.58533 42.0921 7.11C42.5061 6.61933 43.0121 6.236 43.6101 5.96C44.2235 5.66867 44.8905 5.523 45.6111 5.523C46.6998 5.523 47.6581 5.776 48.4861 6.282C49.3141 6.77267 49.9581 7.46267 50.4181 8.352C50.8935 9.24133 51.1311 10.2533 51.1311 11.388C51.1311 12.5073 50.8935 13.5117 50.4181 14.401C49.9581 15.275 49.3141 15.965 48.4861 16.471C47.6581 16.977 46.6998 17.23 45.6111 17.23ZM44.8521 13.665C45.2968 13.665 45.6878 13.5653 46.0251 13.366C46.3625 13.1667 46.6231 12.8983 46.8071 12.561C46.9911 12.2083 47.0831 11.8097 47.0831 11.365C47.0831 10.9203 46.9911 10.5293 46.8071 10.192C46.6231 9.85467 46.3625 9.58633 46.0251 9.387C45.6878 9.18767 45.3045 9.088 44.8751 9.088C44.4611 9.088 44.0855 9.18767 43.7481 9.387C43.4108 9.571 43.1501 9.83933 42.9661 10.192C42.7821 10.5293 42.6901 10.9203 42.6901 11.365C42.6901 11.8097 42.7821 12.2083 42.9661 12.561C43.1501 12.8983 43.4031 13.1667 43.7251 13.366C44.0625 13.5653 44.4381 13.665 44.8521 13.665ZM38.9181 21.761V5.753H42.9201V8.582L42.2531 11.296L42.8281 14.033V21.761H38.9181ZM54.1378 17V1.107H58.1398V17H54.1378ZM51.6538 9.088V5.753H60.6238V9.088H51.6538ZM66.5515 17V0.692999H70.6685V17H66.5515ZM69.8175 17V13.458H77.6835V17H69.8175ZM83.9275 17.23C82.8848 17.23 81.9572 16.977 81.1445 16.471C80.3318 15.965 79.6955 15.275 79.2355 14.401C78.7755 13.5117 78.5455 12.5073 78.5455 11.388C78.5455 10.2533 78.7755 9.24133 79.2355 8.352C79.6955 7.46267 80.3318 6.77267 81.1445 6.282C81.9572 5.776 82.8848 5.523 83.9275 5.523C84.6328 5.523 85.2768 5.65333 85.8595 5.914C86.4422 6.15933 86.9175 6.512 87.2855 6.972C87.6688 7.432 87.8988 7.95333 87.9755 8.536V14.194C87.8988 14.792 87.6688 15.321 87.2855 15.781C86.9175 16.2257 86.4422 16.5783 85.8595 16.839C85.2768 17.0997 84.6328 17.23 83.9275 17.23ZM84.7785 13.665C85.4378 13.665 85.9668 13.4503 86.3655 13.021C86.7795 12.5917 86.9865 12.0397 86.9865 11.365C86.9865 10.9203 86.8945 10.5293 86.7105 10.192C86.5265 9.85467 86.2658 9.58633 85.9285 9.387C85.6065 9.18767 85.2308 9.088 84.8015 9.088C84.3722 9.088 83.9888 9.18767 83.6515 9.387C83.3295 9.58633 83.0688 9.86233 82.8695 10.215C82.6855 10.5523 82.5935 10.9357 82.5935 11.365C82.5935 11.8097 82.6855 12.2083 82.8695 12.561C83.0535 12.8983 83.3142 13.1667 83.6515 13.366C83.9888 13.5653 84.3645 13.665 84.7785 13.665ZM86.8255 17V13.987L87.4005 11.227L86.8255 8.513V5.753H90.7585V17H86.8255ZM99.7869 17.23C99.0662 17.23 98.3992 17.092 97.7859 16.816C97.1726 16.5247 96.6666 16.1337 96.2679 15.643C95.8692 15.1523 95.6239 14.6157 95.5319 14.033V8.536C95.6239 7.95333 95.8692 7.432 96.2679 6.972C96.6819 6.512 97.1956 6.15933 97.8089 5.914C98.4222 5.65333 99.0816 5.523 99.7869 5.523C100.876 5.523 101.834 5.776 102.662 6.282C103.49 6.77267 104.134 7.46267 104.594 8.352C105.069 9.24133 105.307 10.2533 105.307 11.388C105.307 12.5073 105.069 13.5117 104.594 14.401C104.134 15.275 103.49 15.965 102.662 16.471C101.834 16.977 100.876 17.23 99.7869 17.23ZM99.0739 13.665C99.5032 13.665 99.8789 13.5653 100.201 13.366C100.538 13.1667 100.799 12.8983 100.983 12.561C101.167 12.2083 101.259 11.8097 101.259 11.365C101.259 10.9357 101.167 10.5523 100.983 10.215C100.799 9.86233 100.538 9.58633 100.201 9.387C99.8636 9.18767 99.4802 9.088 99.0509 9.088C98.6216 9.088 98.2382 9.18767 97.9009 9.387C97.5789 9.58633 97.3259 9.85467 97.1419 10.192C96.9579 10.5293 96.8659 10.9203 96.8659 11.365C96.8659 11.825 96.9579 12.2313 97.1419 12.584C97.3259 12.9213 97.5866 13.1897 97.9239 13.389C98.2612 13.573 98.6446 13.665 99.0739 13.665ZM93.0939 17V0.232999H97.0959V8.513L96.4289 11.227L97.0039 13.987V17H93.0939ZM111.23 17.322C110.54 17.322 109.858 17.23 109.183 17.046C108.524 16.862 107.903 16.6167 107.32 16.31C106.753 15.988 106.27 15.62 105.871 15.206L108.056 12.975C108.424 13.3583 108.861 13.6573 109.367 13.872C109.889 14.0867 110.441 14.194 111.023 14.194C111.361 14.194 111.614 14.148 111.782 14.056C111.966 13.964 112.058 13.8337 112.058 13.665C112.058 13.4197 111.928 13.2357 111.667 13.113C111.422 12.975 111.092 12.86 110.678 12.768C110.28 12.6607 109.858 12.538 109.413 12.4C108.969 12.2467 108.539 12.0473 108.125 11.802C107.711 11.5567 107.374 11.2117 107.113 10.767C106.868 10.3223 106.745 9.755 106.745 9.065C106.745 8.34433 106.937 7.71567 107.32 7.179C107.719 6.627 108.271 6.19767 108.976 5.891C109.682 5.569 110.51 5.408 111.46 5.408C112.426 5.408 113.346 5.57667 114.22 5.914C115.094 6.236 115.8 6.72667 116.336 7.386L114.128 9.617C113.76 9.203 113.354 8.91933 112.909 8.766C112.465 8.59733 112.058 8.513 111.69 8.513C111.338 8.513 111.085 8.56667 110.931 8.674C110.778 8.766 110.701 8.89633 110.701 9.065C110.701 9.26433 110.824 9.42533 111.069 9.548C111.33 9.67067 111.66 9.78567 112.058 9.893C112.472 9.985 112.894 10.1077 113.323 10.261C113.768 10.4143 114.19 10.629 114.588 10.905C115.002 11.1657 115.332 11.5183 115.577 11.963C115.838 12.4077 115.968 12.9827 115.968 13.688C115.968 14.8073 115.539 15.6967 114.68 16.356C113.822 17 112.672 17.322 111.23 17.322Z" fill="white"/>
</svg>
